#!OML:ASF E:\Steps\Project 1\Capture day 1\Session 2\Subject.ASF
:FULLY-SPECIFIED
:DEGREES
175
root 2.25452 18.3181 17.4372 -160.845 -9.45499 190.167
lowerback -24.0344 -7.07661 -13.1748
upperback -1.23619 -6.35641 0.665206
thorax 12.8447 -3.90472 5.56506
lowerneck -2.91565 -9.46636 -0.325112
upperneck 23.312 -12.856 5.80704
head 8.10208 -4.97178 1.04402
rclavicle -3.97569e-016 3.18055e-014
rhumerus -57.0198 -12.0395 -77.0084
rradius 38.6513
rwrist -8.75819
rhand -2.16276 -52.8172
rfingers 7.12502
rthumb 23.5173 -81.3996
lclavicle -3.97569e-016 3.18055e-014
lhumerus -33.7308 -20.5655 62.4769
lradius 41.6694
lwrist 6.16247
lhand -19.991 -10.5187
lfingers 7.12502
lthumb 6.34855 19.3662
rfemur -45.3347 -6.09211 -5.19153
rtibia 17.0234
rfoot 4.08046 -26.0265
rtoes -13.6079
lfemur -18.7751 -16.1464 3.90756
ltibia 38.5066
lfoot -36.4374 3.53463
ltoes -27.3325
176
root 2.35873 18.2806 17.3495 -160.627 -9.87631 190.355
lowerback -24.1651 -7.20691 -13.1505
upperback -1.33127 -6.54057 0.695777
thorax 12.8362 -3.9895 5.50522
lowerneck -2.94279 -9.40631 -0.326537
upperneck 23.5336 -12.7619 5.8016
head 8.17821 -4.90569 1.04855
rclavicle 3.8763e-014 9.54166e-015
rhumerus -57.6328 -11.6583 -77.0999
rradius 39.0784
rwrist -9.04121
rhand -1.94152 -53.2713
rfingers 7.12502
rthumb 23.7295 -81.8264
lclavicle 3.8763e-014 9.54166e-015
lhumerus -33.7737 -20.7969 62.0306
lradius 41.8963
lwrist 6.27518
lhand -19.9419 -10.4686
lfingers 7.12502
lthumb 6.3959 19.4148
rfemur -45.0667 -5.82228 -5.79113
rtibia 16.212
rfoot 4.09861 -27.1043
rtoes -13.2611
lfemur -18.815 -16.379 4.73441
ltibia 38.4246
lfoot -36.4799 3.96241
ltoes -28.9819
177
root 2.46971 18.249 17.2713 -160.601 -10.1503 190.468
lowerback -23.9398 -7.27964 -13.3073
upperback -1.36921 -6.63296 0.718885
thorax 12.7205 -4.03612 5.59763
lowerneck -3.01174 -9.3107 -0.44993
upperneck 23.6223 -12.6491 5.96459
head 8.23614 -4.8366 1.12699
rclavicle -2.46493e-014 -3.81667e-014
rhumerus -58.0191 -11.3043 -77.1608
rradius 39.3794
rwrist -9.11626
rhand -1.27099 -53.2566
rfingers 7.12502
rthumb 24.3724 -81.7267
lclavicle -2.46493e-014 -3.81667e-014
lhumerus -33.9129 -20.8614 61.5322
lradius 42.3603
lwrist 6.27333
lhand -19.7289 -10.4161
lfingers 7.12502
lthumb 6.60148 19.461
rfemur -44.7577 -5.23088 -6.52497
rtibia 15.522
rfoot 4.05883 -28.2106
rtoes -11.8046
lfemur -18.6156 -16.5888 5.43407
ltibia 38.2901
lfoot -36.6783 3.89418
ltoes -28.379
178
root 2.57138 18.1974 17.1506 -160.525 -10.6513 190.323
lowerback -24.3164 -7.50527 -13.5203
upperback -1.23103 -6.79583 0.64446
thorax 13.0983 -4.13683 5.51814
lowerneck -3.15294 -9.17267 -0.56152
upperneck 23.7392 -12.469 6.04322
head 8.30688 -4.74211 1.17854
rclavicle -2.10712e-014 4.13472e-014
rhumerus -58.463 -10.861 -77.3211
rradius 39.7958
rwrist -9.24385
rhand -1.64903 -51.3555
rfingers 7.12502
rthumb 24.01 -79.8738
lclavicle -2.10712e-014 4.13472e-014
lhumerus -33.8153 -20.9916 61.0442
lradius 42.5726
lwrist 6.29047
lhand -19.4526 -10.4219
lfingers 7.12502
lthumb 6.8683 19.4467
rfemur -43.9504 -5.32577 -7.27333
rtibia 14.534
rfoot 4.46252 -28.7415
rtoes -10.7585
lfemur -18.1629 -17.0892 5.72209
ltibia 37.8984
lfoot -36.8761 4.09955
ltoes -28.997
179
root 2.68065 18.1526 17.0493 -160.505 -11.0107 190.312
lowerback -24.321 -7.63419 -13.6937
upperback -1.22745 -6.91676 0.60219
thorax 13.1373 -4.20329 5.51115
lowerneck -2.85037 -9.46234 -0.279706
upperneck 23.3653 -12.8698 5.92241
head 8.11447 -4.95548 1.07686
rclavicle 7.35503e-015 1.59028e-014
rhumerus -59.1615 -10.3469 -77.5767
rradius 40.3582
rwrist -9.73805
rhand -1.24606 -53.3053
rfingers 7.12502
rthumb 24.3963 -81.7722
lclavicle 7.35503e-015 1.59028e-014
lhumerus -33.5956 -21.3091 60.6137
lradius 42.5389
lwrist 6.36468
lhand -19.412 -10.2633
lfingers 7.12502
lthumb 6.90742 19.604
rfemur -43.4125 -4.77875 -8.10361
rtibia 13.7768
rfoot 4.38961 -29.6899
rtoes -8.77762
lfemur -17.8077 -17.3388 6.23538
ltibia 37.6805
lfoot -37.0938 4.03796
ltoes -28.9677
180
root 2.79351 18.1089 16.9555 -160.401 -11.3899 190.446
lowerback -24.2583 -7.71553 -13.6609
upperback -1.29305 -7.05322 0.565666
thorax 13.0502 -4.26042 5.40928
lowerneck -2.59294 -9.36248 -0.137742
upperneck 23.1505 -12.7348 6.03263
head 7.98897 -4.88217 1.11751
rclavicle -5.96354e-016 -4.77083e-014
rhumerus -59.8282 -10.0344 -77.7183
rradius 40.8867
rwrist -9.74903
rhand -0.645205 -54.1476
rfingers 7.12502
rthumb 24.9722 -82.5357
lclavicle -5.96354e-016 -4.77083e-014
lhumerus -33.7784 -21.6195 60.1114
lradius 42.8997
lwrist 6.43633
lhand -19.7277 -10.2296
lfingers 7.12502
lthumb 6.60267 19.6474
rfemur -43.0762 -4.09583 -8.7865
rtibia 13.1179
rfoot 3.89963 -30.7488
rtoes -6.04042
lfemur -17.5919 -17.5702 7.02576
ltibia 37.3888
lfoot -37.3383 3.21787
ltoes -26.47
181
root 2.90269 18.0599 16.8567 -160.284 -11.6389 190.543
lowerback -24.3305 -7.71716 -13.504
upperback -1.27431 -7.07785 0.450038
thorax 13.0782 -4.26239 5.18567
lowerneck -1.93186 -9.17873 -0.313033
upperneck 22.1401 -12.5747 6.94936
head 7.60131 -4.81192 1.49279
rclavicle 2.24627e-014 -4.45278e-014
rhumerus -60.2774 -9.83957 -77.8516
rradius 41.169
rwrist -9.66693
rhand -0.674392 -52.9875
rfingers 7.12502
rthumb 24.9443 -81.3795
lclavicle 2.24627e-014 -4.45278e-014
lhumerus -34.1149 -22.0388 59.5437
lradius 43.5144
lwrist 6.52954
lhand -20.0025 -10.2524
lfingers 7.12502
lthumb 6.33742 19.6328
rfemur -42.7447 -3.50654 -9.40524
rtibia 12.3475
rfoot 3.63759 -31.5507
rtoes -4.47021
lfemur -17.1796 -17.8278 7.66218
ltibia 36.8815
lfoot -37.2208 3.68274
ltoes -26.7137
182
root 3.00959 17.995 16.7296 -160.13 -12.0501 190.233
lowerback -24.7459 -7.93761 -13.748
upperback -1.11899 -7.2136 0.359854
thorax 13.4885 -4.3525 5.10504
lowerneck -2.83385 -9.18129 -0.279275
upperneck 23.3481 -12.5591 6.46831
head 8.13225 -4.74169 1.28425
rclavicle -1.86858e-014 -7.63333e-014
rhumerus -60.6219 -9.40579 -77.9221
rradius 41.5314
rwrist -9.75674
rhand -1.31449 -51.1915
rfingers 7.12502
rthumb 24.3307 -79.6671
lclavicle -1.86858e-014 -7.63333e-014
lhumerus -34.2389 -22.2511 59.177
lradius 43.8206
lwrist 6.47579
lhand -20.0633 -10.2931
lfingers 7.12502
lthumb 6.27866 19.5938
rfemur -42.0293 -3.48746 -10.1638
rtibia 11.5104
rfoot 4.12985 -31.8085
rtoes -5.3108
lfemur -16.6308 -18.3207 7.78401
ltibia 36.2544
lfoot -37.192 4.01619
ltoes -28.1852
183
root 3.12933 17.9511 16.6464 -160.126 -12.1727 190.364
lowerback -24.451 -7.95812 -13.7705
upperback -1.1497 -7.28678 0.467111
thorax 13.3486 -4.38247 5.23587
lowerneck -3.28904 -9.20702 -0.314927
upperneck 24.0495 -12.5229 5.9234
head 8.41573 -4.72922 1.08859
rclavicle -1.63003e-014 3.18055e-015
rhumerus -61.0819 -8.87211 -77.919
rradius 42.0191
rwrist -9.89334
rhand -1.11544 -51.6508
rfingers 7.12502
rthumb 24.5216 -80.1008
lclavicle -1.63003e-014 3.18055e-015
lhumerus -34.4507 -22.1833 58.8759
lradius 44.0786
lwrist 6.38986
lhand -20.0988 -10.445
lfingers 7.12502
lthumb 6.24447 19.4429
rfemur -41.8596 -2.0206 -10.9766
rtibia 11.0151
rfoot 3.12973 -33.1085
rtoes -3.00829
lfemur -16.28 -18.2876 8.51784
ltibia 36.0011
lfoot -37.2643 4.27777
ltoes -29.4069
184
root 3.23841 17.8857 16.5315 -159.962 -12.6575 190.268
lowerback -24.6365 -8.08387 -13.6844
upperback -1.09319 -7.43729 0.405731
thorax 13.5136 -4.45042 5.04143
lowerneck -3.24785 -9.13942 -0.352179
upperneck 24.0396 -12.4217 5.93884
head 8.40424 -4.68416 1.11067
rclavicle -1.8487e-014 7.95139e-014
rhumerus -61.6508 -8.53112 -77.957
rradius 42.4771
rwrist -9.97866
rhand -0.899015 -52.6274
rfingers 7.12502
rthumb 24.729 -81.0491
lclavicle -1.8487e-014 7.95139e-014
lhumerus -34.5994 -22.3673 58.4696
lradius 44.3081
lwrist 6.56638
lhand -20.2306 -10.4147
lfingers 7.12502
lthumb 6.11719 19.477
rfemur -41.21 -1.51503 -11.6891
rtibia 10.0878
rfoot 2.64887 -33.9435
rtoes -0.734866
lfemur -15.9796 -18.622 9.00228
ltibia 35.5317
lfoot -37.3263 4.82756
ltoes -30.7356
185
root 3.35386 17.8368 16.4403 -159.793 -13.072 190.541
lowerback -24.5259 -8.0284 -13.3026
upperback -1.20099 -7.502 0.406937
thorax 13.3126 -4.45016 4.84135
lowerneck -2.84632 -9.1049 -0.233863
upperneck 23.8095 -12.3536 6.00904
head 8.24758 -4.65003 1.14281
rclavicle 6.16232e-014 -5.725e-014
rhumerus -62.2358 -8.33237 -77.9737
rradius 42.7284
rwrist -10.1048
rhand -1.20226 -52.8754
rfingers 7.12502
rthumb 24.4383 -81.3366
lclavicle 6.16232e-014 -5.725e-014
lhumerus -34.6667 -22.8445 58.0846
lradius 44.4477
lwrist 6.78823
lhand -20.1745 -10.3329
lfingers 7.12502
lthumb 6.17138 19.5572
rfemur -40.8961 -0.171098 -12.3513
rtibia 9.10086
rfoot 1.65647 -35.5265
rtoes 2.64409
lfemur -15.9785 -18.6173 10.0495
ltibia 35.2852
lfoot -37.3399 5.47363
ltoes -32.7634
